<svg width="275" height="47" viewBox="0 0 275 47" fill="none" xmlns="http://www.w3.org/2000/svg">
<g filter="url(#filter0_d_1_3513)">
<circle cx="47.8984" cy="18.6836" r="13" fill="#FFDF42"/>
</g>
<path d="M49.0938 24.6836H47.6406V15.0508L44.7266 16.1211V14.8086L48.8672 13.2539H49.0938V24.6836Z" fill="#211A1D"/>
<path d="M83.2969 24.6836H75.8438V23.6445L79.7812 19.2695C80.3646 18.6081 80.7656 18.0716 80.9844 17.6602C81.2083 17.2435 81.3203 16.8138 81.3203 16.3711C81.3203 15.7773 81.1406 15.2904 80.7812 14.9102C80.4219 14.5299 79.9427 14.3398 79.3438 14.3398C78.625 14.3398 78.0651 14.5456 77.6641 14.957C77.2682 15.3633 77.0703 15.931 77.0703 16.6602H75.625C75.625 15.6133 75.9609 14.7669 76.6328 14.1211C77.3099 13.4753 78.2135 13.1523 79.3438 13.1523C80.401 13.1523 81.237 13.431 81.8516 13.9883C82.4661 14.5404 82.7734 15.2773 82.7734 16.1992C82.7734 17.319 82.0599 18.6523 80.6328 20.1992L77.5859 23.5039H83.2969V24.6836ZM106.773 18.293H107.859C108.542 18.2826 109.078 18.1029 109.469 17.7539C109.859 17.4049 110.055 16.9336 110.055 16.3398C110.055 15.0065 109.391 14.3398 108.062 14.3398C107.438 14.3398 106.938 14.5195 106.562 14.8789C106.193 15.2331 106.008 15.7044 106.008 16.293H104.562C104.562 15.3919 104.891 14.6445 105.547 14.0508C106.208 13.4518 107.047 13.1523 108.062 13.1523C109.135 13.1523 109.977 13.4362 110.586 14.0039C111.195 14.5716 111.5 15.3607 111.5 16.3711C111.5 16.8659 111.339 17.3451 111.016 17.8086C110.698 18.2721 110.263 18.6185 109.711 18.8477C110.336 19.0456 110.818 19.3737 111.156 19.832C111.5 20.2904 111.672 20.8503 111.672 21.5117C111.672 22.5326 111.339 23.3424 110.672 23.9414C110.005 24.5404 109.138 24.8398 108.07 24.8398C107.003 24.8398 106.133 24.5508 105.461 23.9727C104.794 23.3945 104.461 22.6315 104.461 21.6836H105.914C105.914 22.2826 106.109 22.7617 106.5 23.1211C106.891 23.4805 107.414 23.6602 108.07 23.6602C108.768 23.6602 109.302 23.4779 109.672 23.1133C110.042 22.7487 110.227 22.2253 110.227 21.543C110.227 20.8815 110.023 20.3737 109.617 20.0195C109.211 19.6654 108.625 19.4831 107.859 19.4727H106.773V18.293ZM139.602 20.8633H141.18V22.043H139.602V24.6836H138.148V22.043H132.969V21.1914L138.062 13.3086H139.602V20.8633ZM134.609 20.8633H138.148V15.2852L137.977 15.5977L134.609 20.8633ZM162.992 18.9805L163.57 13.3086H169.398V14.6445H164.797L164.453 17.7461C165.01 17.418 165.643 17.2539 166.352 17.2539C167.388 17.2539 168.211 17.5977 168.82 18.2852C169.43 18.9674 169.734 19.8919 169.734 21.0586C169.734 22.2305 169.417 23.1549 168.781 23.832C168.151 24.5039 167.268 24.8398 166.133 24.8398C165.128 24.8398 164.307 24.5612 163.672 24.0039C163.036 23.4466 162.674 22.6758 162.586 21.6914H163.953C164.042 22.3424 164.273 22.8346 164.648 23.168C165.023 23.4961 165.518 23.6602 166.133 23.6602C166.805 23.6602 167.331 23.431 167.711 22.9727C168.096 22.5143 168.289 21.8815 168.289 21.0742C168.289 20.3138 168.081 19.7044 167.664 19.2461C167.253 18.7826 166.703 18.5508 166.016 18.5508C165.385 18.5508 164.891 18.6888 164.531 18.9648L164.148 19.2773L162.992 18.9805ZM191.336 23.9258C191.336 23.6758 191.409 23.4674 191.555 23.3008C191.706 23.1341 191.93 23.0508 192.227 23.0508C192.523 23.0508 192.747 23.1341 192.898 23.3008C193.055 23.4674 193.133 23.6758 193.133 23.9258C193.133 24.1654 193.055 24.3659 192.898 24.5273C192.747 24.6888 192.523 24.7695 192.227 24.7695C191.93 24.7695 191.706 24.6888 191.555 24.5273C191.409 24.3659 191.336 24.1654 191.336 23.9258ZM195.555 23.9258C195.555 23.6758 195.628 23.4674 195.773 23.3008C195.924 23.1341 196.148 23.0508 196.445 23.0508C196.742 23.0508 196.966 23.1341 197.117 23.3008C197.273 23.4674 197.352 23.6758 197.352 23.9258C197.352 24.1654 197.273 24.3659 197.117 24.5273C196.966 24.6888 196.742 24.7695 196.445 24.7695C196.148 24.7695 195.924 24.6888 195.773 24.5273C195.628 24.3659 195.555 24.1654 195.555 23.9258ZM199.773 23.9258C199.773 23.6758 199.846 23.4674 199.992 23.3008C200.143 23.1341 200.367 23.0508 200.664 23.0508C200.961 23.0508 201.185 23.1341 201.336 23.3008C201.492 23.4674 201.57 23.6758 201.57 23.9258C201.57 24.1654 201.492 24.3659 201.336 24.5273C201.185 24.6888 200.961 24.7695 200.664 24.7695C200.367 24.7695 200.143 24.6888 199.992 24.5273C199.846 24.3659 199.773 24.1654 199.773 23.9258ZM225.758 18.293H226.844C227.526 18.2826 228.062 18.1029 228.453 17.7539C228.844 17.4049 229.039 16.9336 229.039 16.3398C229.039 15.0065 228.375 14.3398 227.047 14.3398C226.422 14.3398 225.922 14.5195 225.547 14.8789C225.177 15.2331 224.992 15.7044 224.992 16.293H223.547C223.547 15.3919 223.875 14.6445 224.531 14.0508C225.193 13.4518 226.031 13.1523 227.047 13.1523C228.12 13.1523 228.961 13.4362 229.57 14.0039C230.18 14.5716 230.484 15.3607 230.484 16.3711C230.484 16.8659 230.323 17.3451 230 17.8086C229.682 18.2721 229.247 18.6185 228.695 18.8477C229.32 19.0456 229.802 19.3737 230.141 19.832C230.484 20.2904 230.656 20.8503 230.656 21.5117C230.656 22.5326 230.323 23.3424 229.656 23.9414C228.99 24.5404 228.122 24.8398 227.055 24.8398C225.987 24.8398 225.117 24.5508 224.445 23.9727C223.779 23.3945 223.445 22.6315 223.445 21.6836H224.898C224.898 22.2826 225.094 22.7617 225.484 23.1211C225.875 23.4805 226.398 23.6602 227.055 23.6602C227.753 23.6602 228.286 23.4779 228.656 23.1133C229.026 22.7487 229.211 22.2253 229.211 21.543C229.211 20.8815 229.008 20.3737 228.602 20.0195C228.195 19.6654 227.609 19.4831 226.844 19.4727H225.758V18.293ZM233.305 18.9805L233.883 13.3086H239.711V14.6445H235.109L234.766 17.7461C235.323 17.418 235.956 17.2539 236.664 17.2539C237.701 17.2539 238.523 17.5977 239.133 18.2852C239.742 18.9674 240.047 19.8919 240.047 21.0586C240.047 22.2305 239.729 23.1549 239.094 23.832C238.464 24.5039 237.581 24.8398 236.445 24.8398C235.44 24.8398 234.62 24.5612 233.984 24.0039C233.349 23.4466 232.987 22.6758 232.898 21.6914H234.266C234.354 22.3424 234.586 22.8346 234.961 23.168C235.336 23.4961 235.831 23.6602 236.445 23.6602C237.117 23.6602 237.643 23.431 238.023 22.9727C238.409 22.5143 238.602 21.8815 238.602 21.0742C238.602 20.3138 238.393 19.7044 237.977 19.2461C237.565 18.7826 237.016 18.5508 236.328 18.5508C235.698 18.5508 235.203 18.6888 234.844 18.9648L234.461 19.2773L233.305 18.9805Z" fill="#211A1D" fill-opacity="0.6"/>
<path d="M1.19133 16.9765C0.800807 17.367 0.800807 18.0002 1.19133 18.3907L7.55529 24.7547C7.94582 25.1452 8.57898 25.1452 8.96951 24.7547C9.36003 24.3641 9.36003 23.731 8.96951 23.3404L3.31265 17.6836L8.96951 12.0267C9.36003 11.6362 9.36003 11.0031 8.96951 10.6125C8.57898 10.222 7.94582 10.222 7.55529 10.6125L1.19133 16.9765ZM2.89844 16.6836H1.89844L1.89844 18.6836H2.89844V16.6836Z" fill="#458BD1"/>
<path d="M274.606 16.9765C274.996 17.367 274.996 18.0002 274.606 18.3907L268.242 24.7547C267.851 25.1452 267.218 25.1452 266.827 24.7547C266.437 24.3641 266.437 23.731 266.827 23.3404L272.484 17.6836L266.827 12.0267C266.437 11.6362 266.437 11.0031 266.827 10.6125C267.218 10.222 267.851 10.222 268.242 10.6125L274.606 16.9765ZM272.898 16.6836H273.898V18.6836H272.898V16.6836Z" fill="#458BD1"/>
<defs>
<filter id="filter0_d_1_3513" x="24.8984" y="0.683594" width="46" height="46" filterUnits="userSpaceOnUse" color-interpolation-filters="sRGB">
<feFlood flood-opacity="0" result="BackgroundImageFix"/>
<feColorMatrix in="SourceAlpha" type="matrix" values="0 0 0 0 0 0 0 0 0 0 0 0 0 0 0 0 0 0 127 0" result="hardAlpha"/>
<feOffset dy="5"/>
<feGaussianBlur stdDeviation="5"/>
<feColorMatrix type="matrix" values="0 0 0 0 0 0 0 0 0 0 0 0 0 0 0 0 0 0 0.1 0"/>
<feBlend mode="normal" in2="BackgroundImageFix" result="effect1_dropShadow_1_3513"/>
<feBlend mode="normal" in="SourceGraphic" in2="effect1_dropShadow_1_3513" result="shape"/>
</filter>
</defs>
</svg>
